<svg width="1728" height="1579" viewBox="0 0 1728 1579" fill="none" xmlns="http://www.w3.org/2000/svg">
<g clip-path="url(#clip0_3_1130)">
<path d="M2001 0H0V2001H2001V0Z" fill="white"/>
<path d="M1637.79 492.866H104.565V288.068H1637.79V492.866Z" fill="#054F54"/>
<path d="M871.176 800.055H104.565V595.264H871.176V800.055Z" fill="#054F54"/>
<path d="M1637.79 1004.87H871.176V800.055H1637.79V1004.87Z" fill="#054F54"/>
<path d="M1637.79 1312.04H104.565V1107.25H1637.79V1312.04Z" fill="#054F54"/>
</g>
<path d="M32 0.5H1696C1713.4 0.5 1727.5 14.603 1727.5 32V1547C1727.5 1564.4 1713.4 1578.5 1696 1578.5H32C14.603 1578.5 0.5 1564.4 0.5 1547V32C0.500005 14.603 14.603 0.5 32 0.5Z" stroke="black"/>
<defs>
<clipPath id="clip0_3_1130">
<path d="M0 32C0 14.3269 14.3269 0 32 0H1696C1713.67 0 1728 14.3269 1728 32V1547C1728 1564.67 1713.67 1579 1696 1579H32C14.3269 1579 0 1564.67 0 1547V32Z" fill="white"/>
</clipPath>
</defs>
</svg>
