<svg width="898" height="254" viewBox="0 0 898 254" fill="none" xmlns="http://www.w3.org/2000/svg">
<path d="M151.088 101.579H0V82H151.088V101.579Z" fill="white"/>
<path d="M75.544 130.947H0V111.368H75.544V130.947Z" fill="white"/>
<path d="M151.087 150.526H75.543V130.947H151.087V150.526Z" fill="white"/>
<path d="M151.088 179.892H0V160.314H151.088V179.892Z" fill="white"/>
<path d="M189.997 179.682C186.16 179.682 182.48 179.07 178.957 177.848C175.435 176.626 172.352 174.866 169.707 172.572C167.059 170.278 165.159 167.522 164 164.306L175.363 160.084C175.823 161.424 176.767 162.648 178.189 163.752C179.609 164.859 181.348 165.747 183.399 166.415C185.449 167.087 187.647 167.422 189.997 167.422C192.409 167.422 194.667 167.044 196.769 166.291C198.868 165.536 200.564 164.48 201.853 163.124C203.143 161.767 203.789 160.184 203.789 158.376C203.789 156.534 203.109 155.018 201.753 153.828C200.397 152.639 198.663 151.692 196.544 150.988C194.427 150.284 192.245 149.75 189.997 149.382C185.067 148.611 180.653 147.42 176.752 145.814C172.847 144.204 169.764 141.979 167.499 139.13C165.232 136.283 164.1 132.598 164.1 128.075C164.1 123.822 165.308 120.103 167.723 116.919C170.135 113.738 173.311 111.259 177.247 109.483C181.181 107.707 185.432 106.82 189.997 106.82C193.799 106.82 197.469 107.422 201.011 108.628C204.548 109.835 207.648 111.592 210.312 113.904C212.973 116.215 214.884 118.996 216.04 122.247L204.629 126.416C204.168 125.076 203.225 123.854 201.803 122.748C200.383 121.643 198.644 120.764 196.593 120.111C194.543 119.458 192.345 119.131 189.997 119.131C187.647 119.098 185.423 119.475 183.323 120.262C181.224 121.048 179.512 122.112 178.189 123.452C176.867 124.792 176.205 126.334 176.205 128.075C176.205 130.319 176.824 132.011 178.065 133.15C179.307 134.29 180.968 135.118 183.049 135.638C185.135 136.158 187.449 136.635 189.997 137.07C194.627 137.807 198.908 139.047 202.845 140.787C206.78 142.53 209.939 144.85 212.32 147.748C214.701 150.646 215.891 154.19 215.891 158.376C215.891 162.631 214.701 166.359 212.32 169.556C209.939 172.756 206.78 175.244 202.845 177.019C198.908 178.794 194.627 179.682 189.997 179.682Z" fill="white"/>
<path d="M247.247 167.422C249.661 167.422 251.828 166.767 253.745 165.462C255.663 164.155 257.176 162.43 258.284 160.286C259.395 158.143 259.947 155.797 259.947 153.25C259.947 150.637 259.376 148.251 258.235 146.09C257.095 143.929 255.556 142.205 253.621 140.914C251.688 139.625 249.561 138.979 247.247 138.979C244.865 138.979 242.715 139.633 240.797 140.941C238.879 142.246 237.356 143.989 236.233 146.166C235.108 148.343 234.547 150.705 234.547 153.25C234.547 155.898 235.127 158.294 236.283 160.437C237.441 162.581 238.988 164.282 240.921 165.537C242.857 166.794 244.965 167.422 247.247 167.422ZM247.247 179.682C242.684 179.682 238.524 178.493 234.772 176.114C231.016 173.737 228.024 170.546 225.791 166.542C223.559 162.539 222.441 158.109 222.441 153.25C222.441 149.566 223.088 146.125 224.377 142.923C225.667 139.726 227.445 136.911 229.711 134.482C231.975 132.054 234.613 130.153 237.623 128.778C240.633 127.405 243.84 126.718 247.247 126.718C251.812 126.718 255.969 127.907 259.725 130.286C263.477 132.666 266.472 135.863 268.703 139.885C270.935 143.903 272.052 148.359 272.052 153.25C272.052 156.903 271.408 160.321 270.116 163.502C268.827 166.685 267.048 169.49 264.785 171.919C262.519 174.349 259.889 176.249 256.897 177.622C253.903 178.995 250.687 179.682 247.247 179.682Z" fill="white"/>
<path d="M279.838 178.376V128.125H291.943V132.598C293.63 130.788 295.647 129.356 297.995 128.301C300.343 127.246 302.874 126.718 305.586 126.718C309.026 126.718 312.191 127.54 315.085 129.181C317.979 130.822 320.285 133.017 322.006 135.764C323.759 133.017 326.074 130.822 328.953 129.181C331.829 127.54 334.987 126.718 338.427 126.718C342.065 126.718 345.363 127.616 348.325 129.406C351.285 131.2 353.649 133.596 355.421 136.593C357.189 139.59 358.071 142.933 358.071 146.617V178.376H345.967V149.884C345.967 147.942 345.497 146.158 344.553 144.532C343.613 142.908 342.354 141.601 340.785 140.613C339.214 139.625 337.451 139.13 335.501 139.13C333.549 139.13 331.786 139.608 330.218 140.562C328.646 141.517 327.382 142.8 326.423 144.406C325.461 146.014 324.985 147.841 324.985 149.884V178.376H312.879V149.884C312.879 147.841 312.415 146.014 311.49 144.406C310.562 142.8 309.306 141.517 307.719 140.562C306.133 139.608 304.361 139.13 302.41 139.13C300.493 139.13 298.739 139.625 297.153 140.613C295.566 141.601 294.301 142.908 293.357 144.532C292.413 146.158 291.943 147.942 291.943 149.884V178.376H279.838Z" fill="white"/>
<path d="M390.268 167.874C392.849 167.874 395.131 167.22 397.116 165.914C399.1 164.607 400.653 162.84 401.779 160.612C402.901 158.384 403.465 155.932 403.465 153.251C403.465 150.538 402.901 148.067 401.779 145.839C400.653 143.611 399.091 141.843 397.091 140.538C395.089 139.231 392.816 138.576 390.268 138.576C387.723 138.576 385.399 139.239 383.299 140.562C381.197 141.887 379.528 143.654 378.287 145.864C377.049 148.074 376.428 150.538 376.428 153.251C376.428 155.964 377.056 158.427 378.312 160.636C379.571 162.848 381.248 164.607 383.348 165.914C385.447 167.22 387.756 167.874 390.268 167.874ZM404.409 128.126H416.513V178.376H404.409L403.863 172.146C402.507 174.39 400.711 176.208 398.48 177.596C396.248 178.987 393.608 179.682 390.565 179.682C386.895 179.682 383.453 178.978 380.247 177.572C377.04 176.164 374.219 174.223 371.789 171.743C369.359 169.264 367.456 166.4 366.085 163.151C364.711 159.9 364.025 156.416 364.025 152.698C364.025 149.114 364.677 145.746 365.985 142.598C367.292 139.45 369.119 136.686 371.467 134.307C373.816 131.928 376.528 130.07 379.604 128.728C382.677 127.39 385.984 126.718 389.525 126.718C392.799 126.718 395.735 127.455 398.332 128.928C400.925 130.404 403.135 132.28 404.955 134.558L404.409 128.126Z" fill="white"/>
<path d="M448.709 167.874C451.291 167.874 453.572 167.22 455.557 165.914C457.541 164.607 459.095 162.84 460.22 160.612C461.343 158.384 461.907 155.932 461.907 153.251C461.907 150.538 461.343 148.067 460.22 145.839C459.095 143.611 457.532 141.843 455.532 140.538C453.531 139.231 451.257 138.576 448.709 138.576C446.164 138.576 443.84 139.239 441.74 140.562C439.639 141.887 437.969 143.654 436.728 145.864C435.491 148.074 434.869 150.538 434.869 153.251C434.869 155.964 435.497 158.427 436.753 160.636C438.012 162.848 439.689 164.607 441.789 165.914C443.888 167.22 446.197 167.874 448.709 167.874ZM462.947 103H475.052V178.376H462.947V172.095C461.36 174.339 459.359 176.164 456.947 177.572C454.531 178.978 451.737 179.682 448.561 179.682C444.956 179.682 441.583 178.995 438.44 177.622C435.3 176.25 432.529 174.348 430.133 171.919C427.733 169.49 425.856 166.684 424.503 163.502C423.143 160.32 422.467 156.903 422.467 153.251C422.467 149.6 423.143 146.183 424.503 142.999C425.856 139.816 427.733 137.012 430.133 134.582C432.529 132.154 435.3 130.254 438.44 128.88C441.583 127.506 444.956 126.819 448.561 126.819C451.737 126.819 454.531 127.514 456.947 128.904C459.359 130.295 461.36 132.13 462.947 134.407V103Z" fill="white"/>
<path d="M532.401 146.617V178.376H520.296V149.833C520.296 147.857 519.817 146.056 518.858 144.431C517.896 142.807 516.616 141.517 515.01 140.561C513.406 139.608 511.632 139.129 509.677 139.129C507.726 139.129 505.949 139.608 504.346 140.561C502.742 141.517 501.468 142.807 500.528 144.431C499.584 146.056 499.11 147.857 499.11 149.833V178.376H487.009L486.957 103H499.062L499.11 132.599C500.797 130.788 502.814 129.356 505.164 128.3C507.512 127.247 510.041 126.717 512.754 126.717C516.358 126.717 519.65 127.615 522.626 129.407C525.602 131.2 527.977 133.595 529.746 136.593C531.516 139.591 532.401 142.933 532.401 146.617Z" fill="white"/>
<path d="M564.596 167.874C567.178 167.874 569.459 167.22 571.444 165.914C573.428 164.607 574.982 162.84 576.107 160.612C577.23 158.384 577.794 155.932 577.794 153.251C577.794 150.538 577.23 148.067 576.107 145.839C574.982 143.611 573.419 141.843 571.419 140.538C569.418 139.231 567.144 138.576 564.596 138.576C562.051 138.576 559.727 139.239 557.627 140.562C555.526 141.887 553.856 143.654 552.615 145.864C551.378 148.074 550.756 150.538 550.756 153.251C550.756 155.964 551.384 158.427 552.64 160.636C553.899 162.848 555.576 164.607 557.676 165.914C559.775 167.22 562.084 167.874 564.596 167.874ZM578.738 128.126H590.842V178.376H578.738L578.191 172.146C576.835 174.39 575.039 176.208 572.808 177.596C570.576 178.987 567.936 179.682 564.894 179.682C561.223 179.682 557.782 178.978 554.575 177.572C551.368 176.164 548.547 174.223 546.118 171.743C543.687 169.264 541.784 166.4 540.414 163.151C539.039 159.9 538.354 156.416 538.354 152.698C538.354 149.114 539.006 145.746 540.314 142.598C541.62 139.45 543.447 136.686 545.795 134.307C548.144 131.928 550.856 130.07 553.932 128.728C557.006 127.39 560.312 126.718 563.854 126.718C567.127 126.718 570.063 127.455 572.66 128.928C575.254 130.404 577.463 132.28 579.283 134.558L578.738 128.126Z" fill="white"/>
<path d="M646.206 146.617V178.376H634.1V149.833C634.1 147.857 633.622 146.056 632.663 144.431C631.7 142.807 630.42 141.517 628.815 140.561C627.211 139.608 625.436 139.129 623.482 139.129C621.531 139.129 619.754 139.608 618.151 140.561C616.547 141.517 615.272 142.807 614.332 144.431C613.388 146.056 612.915 147.857 612.915 149.833V178.376H600.814L600.762 128.125H612.867L612.915 132.599C614.602 130.788 616.619 129.356 618.968 128.3C621.316 127.247 623.846 126.717 626.559 126.717C630.163 126.717 633.455 127.615 636.431 129.407C639.407 131.2 641.782 133.595 643.551 136.593C645.32 139.591 646.206 142.933 646.206 146.617Z" fill="white"/>
<path d="M679 190.8C675.667 190.8 673.133 190.067 671.4 188.6C669.8 187.133 669 185.133 669 182.6C669 180.2 669.733 177.6 671.2 174.8C672.667 172 674.733 169.4 677.4 167C678.2 166.333 678.867 165.933 679.4 165.8C679.8 165.8 680.133 165.933 680.4 166.2C680.533 166.333 680.6 166.6 680.6 167C680.6 167.933 680 169 678.8 170.2C675.067 174.067 673.2 177.333 673.2 180C673.2 181.467 673.867 182.8 675.2 184C676.533 185.2 678.067 185.733 679.8 185.6C686.467 185.333 693.333 183.867 700.4 181.2C707.467 178.533 714.067 174.867 720.2 170.2C726.333 165.4 731.4 159.933 735.4 153.8C738.333 149.533 739.8 145.8 739.8 142.6C739.8 138.467 737.133 136.4 731.8 136.4C730.867 136.4 729.8 136.533 728.6 136.8C727.4 136.933 726.067 137.133 724.6 137.4L714.6 139.6C706.467 141.333 699.267 142.867 693 144.2C686.733 145.4 681.133 146 676.2 146C670.467 146 666 145.133 662.8 143.4C659.733 141.533 658.2 138.4 658.2 134C658.2 132 658.6 129.6 659.4 126.8C662.067 118 669.2 108.667 680.8 98.8C688.667 92.1333 697.467 86.2 707.2 81C716.933 75.6667 726.733 71.4667 736.6 68.4C746.6 65.2 755.933 63.6 764.6 63.6C771.267 63.6 776.533 65.0667 780.4 68C784.4 70.9333 786.4 74.9333 786.4 80C786.4 84.6667 784.733 89.6667 781.4 95C780.467 96.3333 779.667 97 779 97C778.733 97 778.467 96.8 778.2 96.4C777.933 95.8667 777.8 95.3333 777.8 94.8C777.8 94.6667 777.8 94.4667 777.8 94.2C777.933 93.8 778.067 93.3333 778.2 92.8C779.267 89.6 779.8 86.5333 779.8 83.6C779.8 79.0667 778.2 75.6667 775 73.4C771.933 71.1333 767.467 70.2667 761.6 70.8C751.333 71.8667 739.6 75.1333 726.4 80.6C717.467 84.3333 709 88.7333 701 93.8C693.133 98.8667 686.333 104.267 680.6 110C675 115.6 671.133 121.267 669 127C668.467 128.067 668.2 129.333 668.2 130.8C668.2 136.133 673.467 138.8 684 138.8C689.067 138.8 694.6 138.267 700.6 137.2C706.733 136.133 713.8 134.8 721.8 133.2L728.8 131.8C731.2 131.4 733.533 131.2 735.8 131.2C740.067 131.2 743.467 132.067 746 133.8C748.533 135.533 749.8 137.933 749.8 141C749.8 143.8 748.6 147.133 746.2 151C743.933 154.6 741.267 158.067 738.2 161.4C735.133 164.6 731.733 167.733 728 170.8C720.4 176.933 712.267 181.8 703.6 185.4C694.933 189 686.733 190.8 679 190.8ZM774.513 134.2C772.779 134.2 771.913 133.8 771.913 133C771.913 132.333 772.379 131.4 773.313 130.2C774.379 128.867 775.579 127.733 776.913 126.8C779.846 124.933 782.113 123.333 783.713 122C785.446 120.667 787.513 118.4 789.913 115.2C790.046 115.467 790.113 116 790.113 116.8C790.113 118.533 789.379 120.667 787.913 123.2C786.579 125.6 785.046 127.8 783.313 129.8C781.579 131.8 780.046 133.067 778.713 133.6C777.513 134 776.113 134.2 774.513 134.2ZM756.713 183.2C755.646 183.2 754.646 182.8 753.713 182C752.779 181.2 752.313 180.133 752.313 178.8C752.313 176 754.246 170.867 758.113 163.4L760.313 159C760.579 158.733 760.913 158.067 761.313 157C761.846 155.933 762.579 154.533 763.512 152.8C764.446 150.933 765.179 149.267 765.713 147.8C766.246 146.333 766.646 144.933 766.913 143.6C766.913 143.467 767.179 143.2 767.713 142.8C768.246 142.4 768.779 142.067 769.313 141.8L770.513 141.6C771.579 141.6 772.446 141.8 773.113 142.2C773.913 142.6 774.179 143.133 773.913 143.8C772.979 145.8 772.179 147.533 771.513 149C770.846 150.467 770.313 151.733 769.913 152.8H769.713C768.246 156.133 766.979 159.333 765.913 162.4C764.979 165.333 764.579 168.133 764.713 170.8L764.913 176.2C764.779 177.533 764.313 178.667 763.512 179.6C762.979 180 762.246 180.467 761.313 181C760.379 181.667 759.179 182.333 757.713 183C757.579 183.133 757.246 183.2 756.713 183.2ZM775.388 221C772.454 221 770.054 219.6 768.187 216.8C766.187 214.133 765.187 211.067 765.187 207.6C765.187 204.8 765.587 202.733 766.387 201.4C767.454 199.933 768.454 199.2 769.387 199.2C770.454 199.2 770.987 199.8 770.987 201C770.987 202.067 770.587 203.133 769.787 204.2C769.254 204.867 768.987 205.733 768.987 206.8C768.987 208.8 769.654 210.8 770.987 212.8C772.321 214.8 773.921 215.8 775.788 215.8C776.054 215.8 776.321 215.733 776.588 215.6C776.854 215.6 777.188 215.533 777.588 215.4C783.854 213 789.588 208 794.788 200.4C799.988 192.667 804.254 184.2 807.588 175C810.921 165.667 813.388 157.067 814.988 149.2L814.188 149C813.788 148.733 813.188 149.067 812.388 150C811.588 150.8 810.788 151.733 809.988 152.8C809.188 153.733 808.654 154.4 808.388 154.8C807.988 155.333 806.921 156.533 805.188 158.4C803.588 160.133 801.654 162.133 799.388 164.4C797.121 166.533 794.854 168.667 792.588 170.8C790.321 172.933 788.388 174.667 786.788 176C784.788 177.733 782.321 178.6 779.388 178.6C778.588 178.6 777.788 178.467 776.988 178.2C775.521 177.4 774.788 176.133 774.788 174.4C774.788 172.133 776.121 168.667 778.787 164C780.788 160.533 783.788 156.2 787.788 151C791.788 145.667 796.188 141.133 800.988 137.4C804.454 134.6 808.054 132.8 811.788 132C812.454 131.867 813.121 131.8 813.788 131.8C814.454 131.667 815.121 131.533 815.788 131.4C816.454 131.4 817.054 131.4 817.588 131.4C818.121 131.4 818.654 131.333 819.188 131.2C819.321 131.2 820.321 131.133 822.188 131C824.188 130.733 825.454 130.067 825.988 129L826.588 128.8C827.121 128.8 827.654 129.067 828.188 129.6C828.588 130 828.788 130.8 828.788 132C828.788 132.4 828.721 132.933 828.588 133.6C828.454 134.133 828.388 134.8 828.388 135.6V135.8C828.388 140.733 827.454 145.867 825.588 151.2C823.721 156.4 821.721 161.733 819.588 167.2C815.188 178.267 809.588 188.533 802.788 198C796.121 207.467 788.721 214.6 780.588 219.4C778.854 220.467 777.121 221 775.388 221ZM781.388 171.4C781.921 171.667 782.321 171.8 782.588 171.8C783.254 171.8 784.254 171.467 785.588 170.8C786.521 170.267 787.454 169.6 788.388 168.8C789.454 168 790.654 167.067 791.988 166C792.921 165.333 793.988 164.4 795.188 163.2C796.388 162 797.788 160.6 799.388 159L803.188 155.4C805.054 153.533 807.054 151.333 809.188 148.8C811.321 146.267 813.121 143.8 814.588 141.4C816.054 139 816.788 137.133 816.788 135.8C816.788 134.6 816.054 134 814.588 134C813.121 134 811.121 134.8 808.588 136.4C806.188 138 803.654 139.933 800.988 142.2C798.454 144.467 796.254 146.667 794.388 148.8C792.654 150.533 790.988 152.467 789.388 154.6C787.921 156.6 786.454 158.733 784.988 161C783.254 163.533 782.054 165.733 781.388 167.6C780.588 169.6 780.588 170.867 781.388 171.4ZM830.108 181.2C827.708 181.2 826.508 180.267 826.508 178.4C826.508 177.2 826.908 175.667 827.708 173.8C828.641 171.933 829.574 170.133 830.508 168.4C833.041 163.867 835.374 159.467 837.508 155.2C839.641 150.933 841.708 146.4 843.708 141.6C844.641 139.467 846.041 138.4 847.908 138.4C849.908 138.4 850.508 139.6 849.708 142C848.908 144 848.108 145.8 847.308 147.4C843.574 155 841.708 160.133 841.708 162.8C841.708 164 842.108 164.733 842.908 165C844.774 163.533 846.174 162.467 847.108 161.8C848.041 161 848.574 160.533 848.708 160.4C850.574 158.933 852.641 157.267 854.908 155.4C857.308 153.4 859.908 151.133 862.708 148.6C867.108 144.6 870.774 142.6 873.708 142.6C877.308 142.6 878.841 145.867 878.308 152.4C878.174 154.933 878.174 157.4 878.308 159.8C878.441 160.333 878.508 161.133 878.508 162.2C878.508 163.133 878.508 164.267 878.508 165.6C878.508 166.933 879.308 167.6 880.908 167.6C882.774 167.6 884.508 167.067 886.108 166L890.508 163L894.908 160.2C895.174 160.067 895.641 160 896.308 160C897.108 160 897.108 160.6 896.308 161.8C887.908 172.2 880.974 177.4 875.508 177.4C874.441 177.4 873.374 177.2 872.308 176.8C871.374 176.4 870.708 175.267 870.308 173.4C869.908 171.4 869.641 169.267 869.508 167C869.508 164.733 869.508 163 869.508 161.8L869.708 155.2C869.708 152.4 868.974 151 867.508 151C864.041 151 855.508 158.133 841.908 172.4C840.841 173.733 839.174 175.533 836.908 177.8C834.641 180.067 832.374 181.2 830.108 181.2Z" fill="#F75742"/>
</svg>
