<svg width="655" height="655" viewBox="0 0 655 655" fill="none" xmlns="http://www.w3.org/2000/svg">
<circle cx="327.5" cy="327.5" r="327.5" fill="white"/>
<g filter="url(#filter0_i_2310_3011)">
<path d="M404.815 243.871C403.935 243.853 403.089 244.231 402.511 244.894L360.837 292.742C359.146 294.683 360.525 297.712 363.099 297.712H415.249C418.15 297.712 419.362 301.42 417.021 303.133L129.659 513.395C127.318 515.108 128.529 518.816 131.43 518.816H401.38C486.308 518.816 555.156 457.257 555.156 381.321C555.155 306.412 488.155 245.505 404.815 243.871Z" fill="#0E2E2E"/>
<path d="M404.815 243.871C403.935 243.853 403.089 244.231 402.511 244.894L360.837 292.742C359.146 294.683 360.525 297.712 363.099 297.712H424.429C475.024 297.712 555.155 308.296 555.155 381.321C555.155 306.412 488.155 245.505 404.815 243.871Z" fill="#015546"/>
<path opacity="0.41" d="M379.249 271.603C377.558 273.544 378.937 276.574 381.511 276.574H423.043C447.975 276.574 480.077 279.146 506.229 290.493C509.494 291.91 513.458 287.14 510.82 284.751C483.686 260.17 446.274 244.683 404.812 243.871C403.933 243.853 403.089 244.231 402.511 244.894L379.249 271.603Z" fill="#0E2E2E"/>
</g>
<g filter="url(#filter1_i_2310_3011)">
<path d="M240.365 407.39C241.245 407.408 242.091 407.03 242.669 406.367L284.343 358.519C286.034 356.578 284.655 353.549 282.081 353.549H229.931C227.03 353.549 225.818 349.841 228.16 348.128L515.521 137.866C517.863 136.153 516.651 132.445 513.75 132.445H243.801C158.873 132.445 90.0254 194.004 90.0254 269.94C90.0254 344.849 157.025 405.755 240.365 407.39Z" fill="#0E2E2E"/>
<path d="M240.366 407.39C241.246 407.407 242.092 407.03 242.67 406.366L284.344 358.519C286.034 356.578 284.656 353.548 282.082 353.548H220.751C170.157 353.548 90.0254 342.965 90.0254 269.94C90.026 344.849 157.026 405.755 240.366 407.39Z" fill="#015546"/>
<path opacity="0.41" d="M265.943 379.658C267.634 377.716 266.255 374.687 263.681 374.687H222.149C197.217 374.687 165.116 372.114 138.963 360.768C135.698 359.351 131.734 364.121 134.372 366.51C161.506 391.091 198.918 406.578 240.38 407.39C241.259 407.408 242.103 407.03 242.681 406.366L265.943 379.658Z" fill="#0E2E2E"/>
</g>
<defs>
<filter id="filter0_i_2310_3011" x="128.424" y="243.87" width="426.732" height="274.946" filterUnits="userSpaceOnUse" color-interpolation-filters="sRGB">
<feFlood flood-opacity="0" result="BackgroundImageFix"/>
<feBlend mode="normal" in="SourceGraphic" in2="BackgroundImageFix" result="shape"/>
<feColorMatrix in="SourceAlpha" type="matrix" values="0 0 0 0 0 0 0 0 0 0 0 0 0 0 0 0 0 0 127 0" result="hardAlpha"/>
<feOffset/>
<feGaussianBlur stdDeviation="2"/>
<feComposite in2="hardAlpha" operator="arithmetic" k2="-1" k3="1"/>
<feColorMatrix type="matrix" values="0 0 0 0 0 0 0 0 0 0 0 0 0 0 0 0 0 0 0.25 0"/>
<feBlend mode="normal" in2="shape" result="effect1_innerShadow_2310_3011"/>
</filter>
<filter id="filter1_i_2310_3011" x="90.0254" y="132.445" width="426.73" height="274.946" filterUnits="userSpaceOnUse" color-interpolation-filters="sRGB">
<feFlood flood-opacity="0" result="BackgroundImageFix"/>
<feBlend mode="normal" in="SourceGraphic" in2="BackgroundImageFix" result="shape"/>
<feColorMatrix in="SourceAlpha" type="matrix" values="0 0 0 0 0 0 0 0 0 0 0 0 0 0 0 0 0 0 127 0" result="hardAlpha"/>
<feOffset/>
<feGaussianBlur stdDeviation="2"/>
<feComposite in2="hardAlpha" operator="arithmetic" k2="-1" k3="1"/>
<feColorMatrix type="matrix" values="0 0 0 0 0 0 0 0 0 0 0 0 0 0 0 0 0 0 0.25 0"/>
<feBlend mode="normal" in2="shape" result="effect1_innerShadow_2310_3011"/>
</filter>
</defs>
</svg>
